<?xml version="1.0" encoding="UTF-8"?>
<svg width="512px" height="512px" viewBox="0 0 512 512" version="1.1" xmlns="http://www.w3.org/2000/svg" xmlns:xlink="http://www.w3.org/1999/xlink">
    <title>White Transparent</title>
    <g id="White-Transparent" stroke="none" stroke-width="1" fill="none" fill-rule="evenodd">
        <path d="M189.959485,370.95522 C200.600335,368.201067 210.828749,360.748651 212.56098,354.673312 C214.953109,346.005829 207.199311,337.581359 198.290693,339.201449 C196.723436,339.525467 193.588922,341.064553 191.444254,342.684643 C182.865585,349.084 174.699351,348.921991 166.698092,342.036607 C157.706986,334.422183 144.014109,342.360625 146.241264,354.025276 C147.313598,359.857601 158.119422,368.120062 168.182862,370.793211 C173.874479,372.332297 184.597816,372.413302 189.959485,370.95522 Z" id="Shape" fill="#FFFFFF" fill-rule="nonzero" transform="translate(256.500000, 256.000000) scale(-1, -1) translate(-256.500000, -256.000000) "></path>
        <path d="M487,0 C500.807119,-2.53632657e-15 512,11.1928813 512,25 L512,487 C512,500.807119 500.807119,512 487,512 L25,512 C11.1928813,512 1.69088438e-15,500.807119 0,487 L0,25 C-1.69088438e-15,11.1928813 11.1928813,2.53632657e-15 25,0 L487,0 Z M332.090904,66.2279088 C283.500394,58.7664168 235.647345,85.906569 217.04693,131.413471 C200.90472,171.098769 209.262616,214.801794 239.170771,246.451639 L246.299565,253.995125 L238.59719,257.028919 C229.747654,260.554679 214.752606,264.490411 204.673967,265.884316 C195.49667,267.196226 174.274171,267.196226 164.523293,265.884316 C132.566633,261.7026 96.5949062,247.107594 71.76704,228.412867 C65.4576483,223.657191 62.7536232,222.34528 58.9843762,222.34528 C55.3790095,222.34528 51.363942,224.723118 48.659917,228.330873 C48.5506635,228.478462 48.4483293,228.621315 48.3525018,228.763633 L48.2588279,228.905928 C47.2519366,230.472644 47.0157034,232.144207 47.0007775,239.514775 L47.0009568,241.29046 C47.0035322,242.668153 47.0110991,244.215924 47.021114,245.959672 C47.4308147,297.534161 64.6382467,348.288706 93.6450607,383.054339 C125.028139,420.689776 169.931343,441.762342 228.026911,446.108046 C235.499853,446.698406 262.097233,446.986501 288.79807,446.999536 L292.134837,446.999735 C319.922792,446.989486 346.963042,446.682007 351.756541,446.108046 C389.776772,441.434364 422.143132,418.639916 439.186684,384.284255 C448.282041,366.081494 452.133228,345.910867 450.494425,325.822235 C447.7904,292.860479 431.484309,263.424483 405.18152,244.23779 C402.149735,242.02394 399.69153,239.892085 399.69153,239.482113 C399.69153,239.072141 401.330333,236.44832 403.378837,233.578515 C410.26181,224.231152 417.964184,207.094318 419.848808,197.336983 C420.094628,195.779089 420.668209,194.303189 420.99597,194.057206 C421.32373,193.893217 424.683277,195.779089 428.452524,198.40291 C446.488371,210.88656 448.522928,212.32325 451.768746,212.485816 L451.994725,212.495126 C452.261096,212.503908 452.537869,212.505896 452.834011,212.506181 L453.226144,212.506009 L453.36233,212.50595 C462.949328,212.50595 468.767079,203.486564 464.670071,194.795156 C463.522909,192.499312 460.245303,189.793496 448.855622,182.004027 C441.836502,177.102022 435.665526,172.852867 434.184935,171.761499 L434.048659,171.659966 C433.949302,171.584913 433.885786,171.53397 433.860574,171.508741 C433.450873,171.098769 439.432504,166.589076 447.052938,161.341433 C461.720226,151.338114 464.752011,148.550304 465.653353,144.368589 C467.537976,135.841169 459.507841,127.477739 451.068006,129.36361 C450.438917,129.4747 448.589849,130.45539 446.049118,131.973378 L445.494282,132.306764 C442.480746,134.127392 438.613103,136.618794 434.679975,139.284935 C427.059541,144.450583 420.750149,148.550304 420.668209,148.386315 C420.504329,148.304321 419.275227,144.368589 417.800304,139.694907 C405.837042,101.403514 371.831878,72.2954957 332.090904,66.2279088 Z" id="Combined-Shape" fill="#FFFFFF"></path>
    </g>
</svg>