<?xml version="1.0" encoding="UTF-8"?>
<svg width="512px" height="512px" viewBox="0 0 512 512" version="1.1" xmlns="http://www.w3.org/2000/svg" xmlns:xlink="http://www.w3.org/1999/xlink">
    <!-- Generator: Sketch 64 (93537) - https://sketch.com -->
    <title>Branded Transparent</title>
    <desc>Created with Sketch.</desc>
    <g id="Branded-Transparent" stroke="none" stroke-width="1" fill="none" fill-rule="evenodd">
        <path d="M343.959485,171.95522 C354.600335,169.201067 364.828749,161.748651 366.56098,155.673312 C368.953109,147.005829 361.199311,138.581359 352.290693,140.201449 C350.723436,140.525467 347.588922,142.064553 345.444254,143.684643 C336.865585,150.084 328.699351,149.921991 320.698092,143.036607 C311.706986,135.422183 298.014109,143.360625 300.241264,155.025276 C301.313598,160.857601 312.119422,169.120062 322.182862,171.793211 C327.874479,173.332297 338.597816,173.413302 343.959485,171.95522 Z" id="Shape" fill="#FFCE56" fill-rule="nonzero" transform="translate(333.500000, 156.500000) scale(-1, -1) translate(-333.500000, -156.500000) "></path>
        <path d="M487,0 C500.807119,-2.53632657e-15 512,11.1928813 512,25 L512,487 C512,500.807119 500.807119,512 487,512 L25,512 C11.1928813,512 1.69088438e-15,500.807119 0,487 L0,25 C-1.69088438e-15,11.1928813 11.1928813,2.53632657e-15 25,0 L487,0 Z M332.090904,66.2279088 C283.500394,58.7664168 235.647345,85.906569 217.04693,131.413471 C200.90472,171.098769 209.262616,214.801794 239.170771,246.451639 L239.170771,246.451639 L246.299565,253.995125 L238.59719,257.028919 C229.747654,260.554679 214.752606,264.490411 204.673967,265.884316 C195.49667,267.196226 174.274171,267.196226 164.523293,265.884316 C132.566633,261.7026 96.5949062,247.107594 71.76704,228.412867 C65.4576483,223.657191 62.7536232,222.34528 58.9843762,222.34528 C55.3790095,222.34528 51.363942,224.723118 48.659917,228.330873 C47.021114,230.544722 46.9391738,231.692644 47.021114,245.959672 C47.4308147,297.534161 64.6382467,348.288706 93.6450607,383.054339 C125.028139,420.689776 169.931343,441.762342 228.026911,446.108046 C243.59554,447.337962 342.169543,447.255968 351.756541,446.108046 C389.776772,441.434364 422.143132,418.639916 439.186684,384.284255 C448.282041,366.081494 452.133228,345.910867 450.494425,325.822235 C447.7904,292.860479 431.484309,263.424483 405.18152,244.23779 C402.149735,242.02394 399.69153,239.892085 399.69153,239.482113 C399.69153,239.072141 401.330333,236.44832 403.378837,233.578515 C410.26181,224.231152 417.964184,207.094318 419.848808,197.336983 C420.094628,195.779089 420.668209,194.303189 420.99597,194.057206 C421.32373,193.893217 424.683277,195.779089 428.452524,198.40291 C449.183382,212.751933 448.773681,212.50595 453.36233,212.50595 C462.949328,212.50595 468.767079,203.486564 464.670071,194.795156 C463.522909,192.499312 460.245303,189.793496 448.855622,182.004027 C440.989367,176.510401 434.188334,171.836719 433.860574,171.508741 C433.450873,171.098769 439.432504,166.589076 447.052938,161.341433 C461.720226,151.338114 464.752011,148.550304 465.653353,144.368589 C467.537976,135.841169 459.507841,127.477739 451.068006,129.36361 C449.675023,129.609594 442.300409,134.119287 434.679975,139.284935 C427.059541,144.450583 420.750149,148.550304 420.668209,148.386315 C420.504329,148.304321 419.275227,144.368589 417.800304,139.694907 C405.837042,101.403514 371.831878,72.2954957 332.090904,66.2279088 Z" id="Combined-Shape" fill="#FFCE56"></path>
    </g>
</svg>